Coordinates
version=1
nRows=12
nColumns=19
inDegrees=yes

Units are S.I. units (second, meters, Newtons, ...)
If the header above contains a line with 'inDegrees', this indicates whether rotational values are in degrees (yes) or radians (no).

endheader
time	pelvis_tilt	pelvis_list	pelvis_rotation	pelvis_tx	pelvis_ty	pelvis_tz	hip_flexion_r	hip_adduction_r	hip_rotation_r	knee_angle_r	knee_angle_r_beta	ankle_angle_r	hip_flexion_l	hip_adduction_l	hip_rotation_l	knee_angle_l	knee_angle_l_beta	ankle_angle_l
     11.81333333	     -5.18493134	     -5.63634770	      1.36231367	      2.17854271	      0.86273068	      0.95630030	     35.50463713	      6.49224231	     -6.66807181	     14.14558760	      0.24688708	      5.00166132	    -24.93450671	     -6.06184625	     -3.29031080	     69.73361796	      1.21708123	    -26.07659391
     11.82000000	     -4.28911782	     -6.16647667	      0.78684402	      2.17764953	      0.85990193	      0.95560488	     35.35748889	      6.91401026	     -8.51665523	     17.86491531	      0.31180159	      4.34892451	    -24.40041765	     -5.97603998	     -3.25023898	     74.66602370	      1.30316795	    -27.17132261
     11.82666667	     -4.26909029	     -6.25687814	     -0.09409373	      2.17663006	      0.85540433	      0.95525515	     36.42043588	      6.84900776	     -9.96327065	     22.57013289	      0.39392313	      4.00172922	    -22.83472507	     -5.47990160	     -3.48934737	     79.64746383	      1.39011048	    -27.95103315
     11.83333333	     -3.75930767	     -6.55659680	     -1.05263798	      2.17580779	      0.85098675	      0.95499966	     36.77774763	      6.97623022	    -11.16012616	     27.29655387	      0.47641474	      3.85573111	    -21.89269718	     -5.40207177	     -4.27771536	     84.32843080	      1.47180877	    -28.60429719
     11.84000000	     -3.21509295	     -6.81905211	     -2.15801864	      2.17494472	      0.84635903	      0.95505735	     36.94951696	      7.15771317	    -11.78424143	     32.02101226	      0.55887209	      3.99682397	    -20.99664978	     -5.36382574	     -5.29831483	     88.79932642	      1.54984062	    -28.97991640
     11.84666667	     -2.81490555	     -7.05818836	     -3.42122073	      2.17404858	      0.84144198	      0.95551377	     37.07576580	      7.51950341	    -11.69821121	     36.58074489	      0.63845444	      4.63030909	    -19.93777468	     -5.40681377	     -6.49717888	     93.09737851	      1.62485578	    -29.06732248
     11.85333333	     -2.40611760	     -7.24176577	     -4.73738664	      2.17297383	      0.83669428	      0.95633881	     36.97143969	      8.02845793	    -11.00892536	     40.88258713	      0.71353575	      5.79808159	    -18.81096617	     -5.47518119	     -7.67833887	     97.20545151	      1.69655518	    -28.86494951
     11.86000000	     -2.09161737	     -7.39080116	     -6.08049200	      2.17169216	      0.83216841	      0.95757568	     36.71646046	      8.71727945	     -9.83818751	     44.84153868	      0.78263249	      7.45493371	    -17.47429192	     -5.64876789	     -8.80712024	    101.14474725	      1.76530886	    -28.39073448
     11.86666667	     -1.85639628	     -7.48176452	     -7.39119899	      2.17012229	      0.82806419	      0.95914580	     36.26753623	      9.50158829	     -8.35020123	     48.39004297	      0.84456558	      9.51898449	    -15.88000094	     -5.90767503	     -9.76993048	    104.91813664	      1.83116693	    -27.77208964
     11.87333333	     -1.68654009	     -7.53961041	     -8.53205867	      2.16835136	      0.82459033	      0.96090501	     35.55468769	     10.29193200	     -6.77644438	     51.44148947	      0.89782336	     11.89153420	    -13.99384239	     -6.30223615	    -10.41722944	    108.50417592	      1.89375512	    -27.00399420
     11.88000000	     -1.61809270	     -7.52349622	     -9.47411535	      2.16640623	      0.82178112	      0.96267989	     34.61357623	     10.95407107	     -5.25053833	     53.97355604	      0.94201626	     14.45855355	    -11.73630785	     -6.78202797	    -10.71318527	    111.87816561	      1.95264235	    -26.17990114
     11.88666667	     -1.60178347	     -7.45129345	    -10.08702948	      2.16436199	      0.81978608	      0.96428977	     33.37357906	     11.39896162	     -3.92343706	     55.92697934	      0.97610993	     17.09916446	     -9.10166735	     -7.34472124	    -10.53217997	    114.99788444	      2.00709172	    -25.40283082
